<svg width="10" height="24" viewBox="0 0 10 24" fill="none" xmlns="http://www.w3.org/2000/svg">
<path d="M3.09477 18.6578C2.44118 18.6578 2 18.2028 2 17.5288C2 16.9222 2.50654 16.4167 3.19281 16.4167C3.94444 16.4167 4.5 17.0233 4.5 17.9501C4.5 20.0564 2.96405 20.8989 2 21V20.0732C2.65359 19.9553 3.38889 19.2981 3.42157 18.5735C3.38889 18.5904 3.25817 18.6578 3.09477 18.6578Z" fill="#79819A"/>
<path d="M6.4281 18.6578C5.77451 18.6578 5.33333 18.2028 5.33333 17.5288C5.33333 16.9222 5.83987 16.4167 6.52614 16.4167C7.27778 16.4167 7.83333 17.0233 7.83333 17.9501C7.83333 20.0564 6.29738 20.8989 5.33333 21V20.0732C5.98693 19.9553 6.72222 19.2981 6.7549 18.5735C6.72222 18.5904 6.5915 18.6578 6.4281 18.6578Z" fill="#79819A"/>
</svg>
